<svg xmlns="http://www.w3.org/2000/svg" xmlns:xlink="http://www.w3.org/1999/xlink" width="782" height="411" viewBox="0 0 782 411">
    <defs>
        <path id="a" d="M0 .34h25.927v179.18H0z"/>
    </defs>
    <g fill="none" fill-rule="evenodd">
        <path fill="#3E0082" d="M0 0h1240v800H0z"/>
        <g opacity=".094">
            <path fill="#FFF" d="M190.62 192.197c0-23.2-16.552-40.284-37.972-40.284s-37.97 17.084-37.97 40.284 16.55 40.285 37.97 40.285c21.42 0 37.972-17.084 37.972-40.285m-102.231 0c0-37.988 28.721-67.055 64.26-67.055 35.78 0 64.258 29.067 64.258 67.055 0 37.736-28.477 67.055-64.259 67.055-35.538 0-64.26-29.32-64.26-67.055M655.353 192.197c0-23.2-16.553-40.284-37.973-40.284-21.42 0-37.97 17.084-37.97 40.284s16.55 40.285 37.97 40.285c21.42 0 37.973-17.084 37.973-40.285m-102.232 0c0-37.988 28.721-67.055 64.26-67.055 35.78 0 64.258 29.067 64.258 67.055 0 37.736-28.477 67.055-64.259 67.055-35.538 0-64.26-29.32-64.26-67.055"/>
            <g transform="translate(-8 77)">
                <mask id="b" fill="#fff">
                    <use xlink:href="#a"/>
                </mask>
                <path fill="#FFF" d="M25.927 107.65l-.37.455V.341H0v179.18h25.557v-59.129l.37.451z" mask="url(#b)"/>
            </g>
            <path fill="#FFF" d="M44.133 191.487l52.669-62.906h-31.6l-38.777 47.375v30.96l41.41 50.044h30.881zM358.86 126.288c-16.39 0-29.357 6.94-37.43 20.301-7.094-12.849-18.836-20.3-34.738-20.3-10.865 0-20.086 3.182-27.328 9.606v24.95c4.949-5.825 11.866-8.603 19.5-8.603 14.434 0 22.996 10.02 22.996 28.007v77.857h26.42V186.16c0-23.382 11.008-33.917 26.665-33.917 14.434 0 23.73 10.02 23.73 28.007v77.857h26.42V178.45c0-32.118-18.592-52.162-46.235-52.162M253.627 143.684c-.065.103-.135.199-.2.303V128.58h-26.192V256.96h26.192v-71.893c0-1.673.08-3.261.2-4.803v-36.58zM517.877 129.593v18.81c-.087-.128-.182-.247-.27-.374v39.074c.164 1.56.27 3.145.27 4.768 0 22.877-16.72 39.91-39.097 39.91-22.376 0-39.096-17.033-39.096-39.91 0-22.878 16.72-39.908 39.096-39.908 13.166 0 24.34 5.925 31.336 15.439v-28.048c-8.936-8.268-20.713-13.066-35.024-13.066-34.67 0-61.964 29.232-61.964 65.583 0 36.35 27.294 65.581 61.964 65.581 18.934 0 33.442-8.387 42.785-22.115v15.507c0 22.115-13.77 35.079-36.638 35.079-21.392 0-30.49-8.642-35.9-19.574l-22.867 13.728c10.326 20.334 31.227 30.756 58.275 30.756 32.212 0 63.194-19.064 63.194-59.989v-121.25h-26.064z"/>
        </g>
    </g>
</svg>
