<svg xmlns="http://www.w3.org/2000/svg" xmlns:xlink="http://www.w3.org/1999/xlink" width="331" height="249" viewBox="0 0 331 249">
    <defs>
        <path id="a" d="M0 .071h5.634v37.456H0z"/>
        <path id="c" d="M.071.06h5.244V5.5H.071z"/>
    </defs>
    <g fill="none" fill-rule="evenodd">
        <path fill="#3E0082" d="M0-69h1240v800H0z"/>
        <path fill="#FFF" d="M121.756 124.155c0-4.87-3.496-8.454-8.022-8.454-4.525 0-8.021 3.585-8.021 8.454 0 4.869 3.496 8.454 8.021 8.454 4.526 0 8.022-3.585 8.022-8.454m-21.597 0c0-7.972 6.068-14.073 13.575-14.073 7.56 0 13.576 6.1 13.576 14.073 0 7.92-6.016 14.073-13.576 14.073-7.507 0-13.575-6.154-13.575-14.073M220.182 124.155c0-4.87-3.497-8.454-8.022-8.454s-8.022 3.585-8.022 8.454c0 4.869 3.497 8.454 8.022 8.454s8.022-3.585 8.022-8.454m-21.597 0c0-7.972 6.067-14.073 13.575-14.073 7.56 0 13.576 6.1 13.576 14.073 0 7.92-6.017 14.073-13.576 14.073-7.508 0-13.575-6.154-13.575-14.073"/>
        <g transform="translate(80 100.005)">
            <mask id="b" fill="#fff">
                <use xlink:href="#a"/>
            </mask>
            <path fill="#FFF" d="M5.634 22.503l-.08.095V.071H0v37.456h5.554v-12.36l.08.094z" mask="url(#b)"/>
        </g>
        <path fill="#FFF" d="M91.005 123.888l11.312-13.11H95.53l-8.33 9.873v6.452l8.895 10.429h6.634zM157.599 110.082c-3.446 0-6.171 1.445-7.868 4.228-1.491-2.676-3.96-4.228-7.302-4.228-2.284 0-4.222.663-5.744 2v5.196c1.04-1.213 2.494-1.791 4.098-1.791 3.034 0 4.834 2.086 4.834 5.832v16.213h5.554V122.55c0-4.87 2.314-7.063 5.605-7.063 3.034 0 4.988 2.086 4.988 5.832v16.213h5.554v-16.588c0-6.688-3.909-10.862-9.72-10.862M135.118 113.926c-.014.021-.029.04-.042.063v-3.21h-5.554v26.753h5.554V122.55c0-.349.016-.68.042-1.001v-7.623zM190.922 110.778v3.96l-.056-.08v8.226c.034.328.056.662.056 1.003 0 4.816-3.497 8.401-8.176 8.401-4.68 0-8.176-3.585-8.176-8.4 0-4.816 3.496-8.401 8.176-8.401 2.753 0 5.09 1.247 6.553 3.25v-5.904c-1.869-1.74-4.332-2.75-7.324-2.75-7.251 0-12.959 6.153-12.959 13.804 0 7.652 5.708 13.805 12.959 13.805 3.96 0 6.993-1.765 8.947-4.655v3.264c0 4.655-2.88 7.384-7.662 7.384-4.473 0-6.376-1.819-7.508-4.12l-4.782 2.89c2.16 4.28 6.53 6.474 12.187 6.474 6.737 0 13.216-4.013 13.216-12.628v-25.523h-5.45z"/>
        <g transform="translate(224.645 105.958)">
            <mask id="d" fill="#fff">
                <use xlink:href="#c"/>
            </mask>
            <path fill="#FFF" d="M2.737 2.78c.427 0 .623-.204.623-.52 0-.309-.21-.527-.623-.527h-.471V2.78h.47zm.427.279l.609 1.115h-.385l-.565-1.047h-.557v1.047h-.348V1.386h.804c.674 0 .985.43.985.874 0 .384-.174.678-.543.799zM5.12 2.78C5.12 1.37 4.033.24 2.693.24S.26 1.37.26 2.78c0 1.41 1.094 2.54 2.434 2.54S5.12 4.19 5.12 2.78zm.195 0c0 1.508-1.173 2.721-2.622 2.721-1.449 0-2.622-1.213-2.622-2.72C.071 1.272 1.244.058 2.693.058c1.449 0 2.622 1.214 2.622 2.721z" mask="url(#d)"/>
        </g>
    </g>
</svg>
