<?xml version="1.0" encoding="UTF-8"?>
<svg width="319px" height="620px" viewBox="0 0 319 620" version="1.1" xmlns="http://www.w3.org/2000/svg" xmlns:xlink="http://www.w3.org/1999/xlink">
    <!-- Generator: sketchtool 57.1 (101010) - https://sketch.com -->
    <title>F03D120F-FDF0-47DD-B11E-DCF2977BFDD7vector</title>
    <desc>Created with sketchtool.</desc>
    <g id="Screens" stroke="none" stroke-width="1" fill="none" fill-rule="evenodd" opacity="0.1">
        <g id="Plug-in-Landing" transform="translate(-1212.000000, -196.000000)">
            <g id="Group" transform="translate(1212.000000, 196.000000)">
                <g id="Group-66" transform="translate(0.990693, 0.000000)">
                    <g id="BG-PAttern" transform="translate(-332.990693, 0.000000)">
                        <g id="Group-66-Copy">
                            <g id="Row1">
                                <polygon id="Fill-3-Copy" fill="#FFFF76" points="402.517318 62 402.504563 62.0195865 402.517318 62.039173 363 124 398.60066 124 438 62.039173 437.987246 62.0195865 438 62"></polygon>
                                <polygon id="Fill-4" fill="#FFCDD2" points="260 0 299.517318 61.9608277 299.504563 61.9793257 299.517318 62 335 62 334.987246 61.9793257 335 61.9608277 295.599598 0"></polygon>
                                <polygon id="Fill-4-Copy" fill="#5700B5" points="466 0 505.517318 61.9608277 505.504563 61.9793257 505.517318 62 541 62 540.987246 61.9793257 541 61.9608277 501.599598 0"></polygon>
                                <polygon id="Fill-27" fill="#FFFF76" points="597.012924 62 597 61.9804076 613.307409 36.7411036 636.924664 0 673 0 632.956862 61.9804076 632.968709 62 632.956862 62.0206808 673 124 636.924664 124 597 62.0206808"></polygon>
                            </g>
                            <g id="Row2" transform="translate(0.000000, 124.000000)">
                                <polygon id="Fill-6" fill="#00A0AA" points="565 0 524.557199 61.9793192 524.570252 62 524.557199 62.0195924 565 124 528.565583 124 500 79.9988413 500 44.0000702 528.565583 0"></polygon>
                                <polygon id="Fill-8" fill="#00A0AA" points="331.10333 62 331.116278 61.9793192 291 0 327.140256 0 361.653419 53.5948807 361.653419 0 394 0 394 124 361.653419 124 361.653419 70.4051193 327.140256 124 291 124 331.116278 62.0195924"></polygon>
                                <polygon id="Fill-9" fill="#FFFF76" points="466 0 425.557199 61.9793192 425.570252 62 425.557199 62.0195924 466 124 429.565583 124 401 79.9988413 401 44.0000702 429.565583 0"></polygon>
                                <polygon id="Fill-49" fill="#5800B4" points="670.044215 61 670.031291 61.0210077 670.044215 61.0398041 630 124 666.075336 124 706 61.0398041 705.987076 61.0210077 706 61"></polygon>
                                <polygon id="Fill-50" fill="#00A0AA" points="619.044215 61 619.031291 61.0210077 619.044215 61.0398041 579 124 615.075336 124 655 61.0398041 654.987076 61.0210077 655 61"></polygon>
                            </g>
                            <g id="Row3" transform="translate(0.000000, 248.000000)">
                                <polygon id="Fill-27" fill="#00A0AA" points="397.012924 62 397 61.9804076 413.307409 36.7411036 436.924664 0 473 0 432.956862 61.9804076 432.968709 62 432.956862 62.0206808 473 124 436.924664 124 397 62.0206808"></polygon>
                                <polygon id="Fill-28" fill="#FFCDD2" points="462.012924 62 462 61.9804076 478.307409 36.7411036 501.924664 0 538 0 497.956862 61.9804076 497.968709 62 497.956862 62.0206808 538 124 501.924664 124 462 62.0206808"></polygon>
                                <polygon id="Fill-31" fill="#5800B4" points="358.044215 63 358.031291 62.9789923 358.044215 62.9601959 318 0 354.075336 0 394 62.9601959 393.987076 62.9789923 394 63"></polygon>
                                <polygon id="Fill-32" fill="#FFFF76" points="309.044215 61 309.031291 61.0199021 309.044215 61.0398041 269 124 305.075336 124 345 61.0398041 344.987076 61.0199021 345 61"></polygon>
                                <polygon id="Fill-60" fill="#FFCDD2" points="672.987076 62 673 62.0206808 656.692591 87.2599849 633.075336 124 597 124 637.044215 62.0206808 637.031291 62 637.044215 61.9804076 597 0 633.075336 0 673 61.9804076"></polygon>
                            </g>
                            <g id="Row4" transform="translate(49.000000, 372.000000)">
                                <polygon id="Fill-14" fill="#FFFF76" points="278.012924 62 278 62.0195924 294.307409 87.2588964 317.924664 124 354 124 313.956862 62.0195924 313.968709 62 313.956862 61.9793192 354 0 317.924664 0 278 61.9793192"></polygon>
                                <polygon id="Fill-15" fill="#5800B4" points="385.955785 63 385.968709 62.9789923 385.955785 62.9590902 426 0 389.924664 0 350 62.9590902 350.012924 62.9789923 350 63"></polygon>
                                <polygon id="Fill-16" fill="#00A0AA" points="486.955785 63 486.968709 62.9789923 486.955785 62.9590902 527 0 490.924664 0 451 62.9590902 451.012924 62.9789923 451 63"></polygon>
                                <polygon id="Fill-42" fill="#00A0AA" points="543 124 583.442124 62.0195924 583.429071 62 583.442124 61.9804076 543 0 579.433807 0 608 44.0011587 608 79.9988413 579.433807 124"></polygon>
                            </g>
                            <g id="Row5" transform="translate(0.000000, 494.000000)">
                                <polygon id="Fill-21" fill="#00A0AA" points="435 2 475.043648 63.9804076 475.030723 64 475.043648 64.0195924 435 126 471.074825 126 511 64.0195924 510.985999 64 511 63.9804076 494.692822 38.7411036 471.074825 2"></polygon>
                                <polygon id="Fill-24" fill="#FFCDD2" points="380.923587 63 341 125.960196 341.011847 125.980098 341 126 376.954708 126 376.967632 125.980098 376.954708 125.960196 417 63"></polygon>
                                <polygon id="Fill-39" fill="#5800B4" points="628.654498 2 628.654498 55.5959692 594.140256 2 558 2 598.116278 63.9804076 598.10333 64 598.116278 64.0195924 558 126 594.140256 126 628.654498 72.4051193 628.654498 126 661 126 661 2"></polygon>
                                <polygon id="Fill-40" fill="#FFFF76" points="593.955785 2 593.968709 2.02100774 593.955785 2.03980414 634 65 597.924664 65 558 2.03980414 558.012924 2.02100774 558 2"></polygon>
                            </g>
                        </g>
                    </g>
                </g>
            </g>
        </g>
    </g>
</svg>
