<svg xmlns="http://www.w3.org/2000/svg" xmlns:xlink="http://www.w3.org/1999/xlink" width="100" height="32" viewBox="0 0 100 32">
    <defs>
        <path id="a" d="M0 .047h3.756v24.46H0z"/>
        <path id="c" d="M.047.039h3.497v3.554H.047z"/>
    </defs>
    <g fill="none" fill-rule="evenodd">
        <path fill="#FFFF7F" d="M27.838 15.775c0-3.18-2.332-5.522-5.348-5.522-3.017 0-5.348 2.342-5.348 5.522s2.33 5.52 5.348 5.52c3.016 0 5.348-2.34 5.348-5.52m-14.399 0c0-5.207 4.045-9.19 9.05-9.19 5.04 0 9.05 3.983 9.05 9.19 0 5.172-4.01 9.19-9.05 9.19-5.005 0-9.05-4.018-9.05-9.19M93.455 15.775c0-3.18-2.331-5.522-5.348-5.522s-5.348 2.342-5.348 5.522 2.33 5.52 5.348 5.52c3.017 0 5.348-2.34 5.348-5.52m-14.399 0c0-5.207 4.046-9.19 9.05-9.19 5.04 0 9.051 3.983 9.051 9.19 0 5.172-4.01 9.19-9.05 9.19-5.005 0-9.05-4.018-9.05-9.19"/>
        <g transform="translate(0 .003)">
            <mask id="b" fill="#fff">
                <use xlink:href="#a"/>
            </mask>
            <path fill="#FFFF7F" d="M3.756 14.696l-.054.062V.046H0v24.461h3.702v-8.072l.054.062z" mask="url(#b)"/>
        </g>
        <path fill="#FFFF7F" d="M7.336 15.6l7.542-8.561h-4.525l-5.552 6.447V17.7l5.93 6.81h4.421zM51.732 6.584c-2.296 0-4.113.944-5.245 2.761-.994-1.747-2.64-2.76-4.868-2.76-1.522 0-2.815.432-3.83 1.306v3.393c.694-.792 1.663-1.17 2.733-1.17 2.023 0 3.223 1.363 3.223 3.809V24.51h3.702v-9.785c0-3.18 1.543-4.612 3.737-4.612 2.023 0 3.325 1.363 3.325 3.809V24.51h3.703V13.678c0-4.368-2.606-7.094-6.48-7.094M36.745 9.094l-.028.041V7.04h-3.702V24.51h3.702v-9.785c0-.227.011-.444.028-.653V9.094zM73.948 7.039v2.585l-.038-.051v5.371c.023.215.038.433.038.656 0 3.145-2.331 5.486-5.45 5.486-3.12 0-5.451-2.341-5.451-5.486 0-3.145 2.33-5.486 5.45-5.486 1.836 0 3.394.814 4.369 2.122V8.38c-1.246-1.136-2.888-1.796-4.883-1.796-4.834 0-8.639 4.019-8.639 9.016s3.805 9.015 8.639 9.015c2.64 0 4.662-1.153 5.965-3.04v2.132c0 3.04-1.92 4.822-5.108 4.822-2.982 0-4.25-1.188-5.005-2.69l-3.188 1.886c1.44 2.796 4.354 4.228 8.124 4.228 4.491 0 8.81-2.62 8.81-8.246V7.039h-3.633z"/>
        <g transform="translate(96.43 3.891)">
            <mask id="d" fill="#fff">
                <use xlink:href="#c"/>
            </mask>
            <path fill="#FFFF7F" d="M1.824 1.816c.285 0 .416-.133.416-.34 0-.202-.14-.344-.416-.344H1.51v.684h.314zm.285.182l.406.728h-.256l-.377-.684H1.51v.684H1.28V.905h.536c.449 0 .657.28.657.571 0 .251-.116.443-.363.522zm1.304-.182c0-.92-.724-1.66-1.618-1.66-.893 0-1.622.74-1.622 1.66 0 .92.729 1.658 1.622 1.658.894 0 1.618-.738 1.618-1.658zm.13 0c0 .984-.782 1.777-1.748 1.777C.83 3.593.047 2.8.047 1.816.047.83.83.039 1.795.039c.966 0 1.749.792 1.749 1.777z" mask="url(#d)"/>
        </g>
    </g>
</svg>
