<svg height='100px' width='100px'  fill="#949494" xmlns="http://www.w3.org/2000/svg" 
xmlns:xlink="http://www.w3.org/1999/xlink" version="1.1" x="0px" y="0px" 
viewBox="0 0 144.083 144" enable-background="new 0 0 144.083 144" xml:space="preserve">
<path d="M107.459,75.518h-2.977V51.105L81.606,25.536H41.833c-6.117,0-11.094,4.976-11.094,11.092v70.744  c0,6.116,4.977,11.092,11.094,11.092h51.558c6.117,0,11.092-4.976,11.092-11.092v-1.545h2.977c4.301,0,7.801-3.5,7.801-7.802V83.319  C115.26,79.018,111.76,75.518,107.459,75.518z M82.434,30.963l17.193,19.216H82.434V30.963z M101.483,107.372  c0,4.462-3.629,8.092-8.092,8.092H41.833c-4.463,0-8.094-3.63-8.094-8.092V36.628c0-4.462,3.631-8.092,8.094-8.092h37.601v24.643  h22.049v22.339H68.595c-4.302,0-7.802,3.5-7.802,7.802v14.706c0,4.302,3.5,7.802,7.802,7.802h32.888V107.372z M112.26,98.025  c0,2.647-2.154,4.802-4.801,4.802H68.595c-2.647,0-4.802-2.154-4.802-4.802V83.319c0-2.647,2.154-4.802,4.802-4.802h38.865  c2.646,0,4.801,2.154,4.801,4.802V98.025z"></path>
<path d="M74.92,84.54h-4.63v13.499h4.63c4.5,0,6.484-2.553,6.484-7.07C81.405,86.62,79.081,84.54,74.92,84.54z M75.073,96.526  h-2.988V86.053h3.025c3.309,0,4.5,1.947,4.5,5.161C79.61,96.187,76.301,96.526,75.073,96.526z"></path>
<path d="M89.309,84.219c-4.291,0-6.465,3.403-6.465,7.071c0,3.667,2.174,7.07,6.465,7.07s6.465-3.403,6.465-7.07  C95.774,87.622,93.6,84.219,89.309,84.219z M89.309,96.848c-3.289,0-4.67-2.836-4.67-5.558c0-2.723,1.381-5.559,4.67-5.559  s4.67,2.836,4.67,5.559C93.979,94.012,92.598,96.848,89.309,96.848z"></path>
<path d="M103.696,96.848c-3.232,0-4.594-2.571-4.594-5.652c0-2.817,1.361-5.464,4.576-5.464c1.871,0,3.402,0.964,3.779,2.874h1.797  c-0.416-2.874-2.742-4.387-5.559-4.387c-4.158,0-6.391,3.195-6.391,7.108c0,3.933,2.043,7.033,6.24,7.033  c3.402,0,5.502-2.042,5.842-5.407h-1.797C107.42,95.185,106.059,96.848,103.696,96.848z"></path>
</svg>