<svg height='100px' width='100px'  fill="#949494" xmlns="http://www.w3.org/2000/svg" xmlns:xlink="http://www.w3.org/1999/xlink" version="1.1" x="0px" y="0px" viewBox="0 0 144.083 144" enable-background="new 0 0 144.083 144" xml:space="preserve"><path d="M86.028,26.308H46.255c-6.116,0-11.092,4.976-11.092,11.092v70.744c0,6.116,4.976,11.092,11.092,11.092h51.558  c6.117,0,11.092-4.976,11.092-11.092V51.877L86.028,26.308z M86.856,31.734l17.193,19.216H86.856V31.734z M105.905,108.144  c0,4.462-3.629,8.092-8.092,8.092H46.255c-4.462,0-8.092-3.63-8.092-8.092V37.399c0-4.462,3.63-8.092,8.092-8.092h37.601V53.95  h22.049V108.144z"></path><polygon points="73.284,93.633 73.284,65.038 70.284,65.038 70.284,93.633 60.674,82.393 58.395,84.342 71.784,100.004   85.174,84.342 82.895,82.393 "></polygon></svg>