<svg height='100px' width='100px'  fill="#949494" xmlns="http://www.w3.org/2000/svg" xmlns:xlink="http://www.w3.org/1999/xlink" version="1.1" x="0px" y="0px" viewBox="0 0 144.083 144" enable-background="new 0 0 144.083 144" xml:space="preserve"><path d="M107.459,75.518h-2.977V51.105L81.606,25.536H41.832c-6.116,0-11.092,4.976-11.092,11.092v70.744  c0,6.116,4.976,11.092,11.092,11.092h51.559c6.117,0,11.092-4.976,11.092-11.092v-1.545h2.977c4.301,0,7.801-3.5,7.801-7.802V83.319  C115.26,79.018,111.76,75.518,107.459,75.518z M82.434,30.962l17.193,19.217H82.434V30.962z M101.483,107.372  c0,4.462-3.629,8.092-8.092,8.092H41.832c-4.462,0-8.092-3.63-8.092-8.092V36.628c0-4.462,3.63-8.092,8.092-8.092h37.602v24.643  h22.049v22.339H68.595c-4.302,0-7.802,3.5-7.802,7.802v14.706c0,4.302,3.5,7.802,7.802,7.802h32.888V107.372z M112.26,98.025  c0,2.647-2.154,4.802-4.801,4.802H68.595c-2.647,0-4.802-2.154-4.802-4.802V83.319c0-2.647,2.154-4.802,4.802-4.802h38.865  c2.646,0,4.801,2.154,4.801,4.802V98.025z"></path><path d="M77.188,94.409c0,1.493-0.51,2.438-2.156,2.438c-1.758,0-2.174-1.115-2.174-2.685v-0.566h-1.795v0.831  c0,2.534,1.418,3.933,3.932,3.933c3.025,0,3.988-1.853,3.988-3.687V84.54h-1.795V94.409z"></path><path d="M87.852,84.54h-5.918v13.499h1.795v-5.521h4.123c2.684,0.019,4.139-1.493,4.139-3.989  C91.991,86.034,90.536,84.54,87.852,84.54z M87.247,91.006h-3.518v-4.953h3.518c2.021,0,2.949,0.87,2.949,2.477  C90.196,90.137,89.268,91.025,87.247,91.006z"></path><path d="M99.969,92.443h4.311c0.113,2.457-1.551,4.404-4.328,4.404c-3.006,0-4.633-2.571-4.633-5.388  c0-2.893,1.361-5.729,4.633-5.729c2.004,0,3.648,0.927,4.008,2.968h1.795c-0.51-3.157-2.854-4.48-5.803-4.48  c-4.273,0-6.43,3.403-6.43,7.336c0,3.517,2.402,6.806,6.43,6.806c1.588,0,3.289-0.586,4.328-2.004l0.473,1.683h1.135v-7.108h-5.918  V92.443z"></path></svg>