<svg height='100px' width='100px'  fill="#949494" xmlns="http://www.w3.org/2000/svg" xmlns:xlink="http://www.w3.org/1999/xlink" version="1.1" x="0px" y="0px" viewBox="0 0 144.083 144" enable-background="new 0 0 144.083 144" xml:space="preserve"><path d="M106.604,75.709h-2.977V51.296L80.75,25.727H40.977c-6.116,0-11.092,4.976-11.092,11.092v70.744  c0,6.117,4.976,11.092,11.092,11.092h51.559c6.117,0,11.092-4.975,11.092-11.092v-1.545h2.977c4.301,0,7.801-3.5,7.801-7.801V83.51  C114.405,79.209,110.905,75.709,106.604,75.709z M81.579,31.153L98.772,50.37H81.579V31.153z M100.627,107.563  c0,4.463-3.629,8.092-8.092,8.092H40.977c-4.462,0-8.092-3.629-8.092-8.092V36.819c0-4.462,3.63-8.092,8.092-8.092h37.602V53.37  h22.049v22.339H67.739c-4.302,0-7.802,3.5-7.802,7.801v14.707c0,4.301,3.5,7.801,7.802,7.801h32.888V107.563z M111.405,98.217  c0,2.646-2.154,4.801-4.801,4.801H67.739c-2.647,0-4.802-2.154-4.802-4.801V83.51c0-2.646,2.154-4.801,4.802-4.801h38.865  c2.646,0,4.801,2.154,4.801,4.801V98.217z"></path><path d="M77.682,84.73h-5.917v13.5h1.796v-5.521h4.121c2.686,0.02,4.141-1.492,4.141-3.988S80.368,84.73,77.682,84.73z   M77.077,91.197h-3.516v-4.953h3.516c2.023,0,2.949,0.869,2.949,2.477S79.1,91.217,77.077,91.197z"></path><path d="M88.647,84.73h-4.631v13.5h4.631c4.5,0,6.484-2.553,6.484-7.07C95.131,86.811,92.807,84.73,88.647,84.73z M88.799,96.717  h-2.988V86.244h3.025c3.309,0,4.5,1.947,4.5,5.16C93.336,96.377,90.028,96.717,88.799,96.717z"></path><polygon points="97.327,98.23 99.122,98.23 99.122,92.047 105.323,92.047 105.323,90.535 99.122,90.535 99.122,86.244   106.194,86.244 106.194,84.73 97.327,84.73 "></polygon></svg>