<svg height='100px' width='100px'  fill="#009ea8" xmlns="http://www.w3.org/2000/svg" xmlns:xlink="http://www.w3.org/1999/xlink" version="1.1" x="0px" y="0px" viewBox="0 0 144.083 144" enable-background="new 0 0 144.083 144" xml:space="preserve"><path d="M107.481,76.393h-2.975V51.98L81.627,26.411H41.854c-6.116,0-11.092,4.976-11.092,11.092v70.744  c0,6.116,4.976,11.092,11.092,11.092h51.56c6.115,0,11.092-4.976,11.092-11.092v-1.545h2.975c4.303,0,7.803-3.5,7.803-7.802V84.194  C115.284,79.893,111.784,76.393,107.481,76.393z M82.458,31.838l17.193,19.216H82.458V31.838z M101.506,108.247  c0,4.462-3.631,8.092-8.092,8.092h-51.56c-4.462,0-8.092-3.63-8.092-8.092V37.503c0-4.462,3.63-8.092,8.092-8.092h37.603v24.643  h22.049v22.339H68.617c-4.302,0-7.802,3.5-7.802,7.802V98.9c0,4.302,3.5,7.802,7.802,7.802h32.889V108.247z M112.284,98.9  c0,2.647-2.154,4.802-4.803,4.802H68.617c-2.647,0-4.802-2.154-4.802-4.802V84.194c0-2.647,2.154-4.802,4.802-4.802h38.864  c2.648,0,4.803,2.154,4.803,4.802V98.9z"></path><path d="M76.223,85.415h-5.917v13.499h1.795v-5.521h4.123c2.684,0.019,4.139-1.493,4.139-3.989  C80.362,86.909,78.907,85.415,76.223,85.415z M75.618,91.881h-3.517v-4.953h3.517c2.021,0,2.949,0.87,2.949,2.477  C78.567,91.012,77.639,91.9,75.618,91.881z"></path><polygon points="91.592,96.361 91.555,96.361 84.446,85.415 82.538,85.415 82.538,98.914 84.239,98.914 84.239,88.081   84.276,88.081 91.329,98.914 93.293,98.914 93.293,85.415 91.592,85.415 "></polygon><path d="M101.991,93.318h4.311c0.113,2.457-1.551,4.404-4.328,4.404c-3.006,0-4.633-2.571-4.633-5.388  c0-2.893,1.361-5.729,4.633-5.729c2.004,0,3.648,0.927,4.008,2.968h1.795c-0.51-3.157-2.854-4.48-5.803-4.48  c-4.273,0-6.43,3.403-6.43,7.336c0,3.517,2.402,6.806,6.43,6.806c1.588,0,3.289-0.586,4.328-2.004l0.473,1.683h1.135v-7.108h-5.918  V93.318z"></path></svg>