<svg height='100px' width='100px'  fill="#949494" xmlns="http://www.w3.org/2000/svg" xmlns:xlink="http://www.w3.org/1999/xlink" version="1.1" x="0px" y="0px" viewBox="0 0 144.083 144" enable-background="new 0 0 144.083 144" xml:space="preserve"><path d="M107.292,76.084h-2.977V51.671L81.438,26.102H41.665c-6.117,0-11.094,4.976-11.094,11.092v70.744  c0,6.117,4.977,11.092,11.094,11.092h51.558c6.117,0,11.092-4.975,11.092-11.092v-1.545h2.977c4.301,0,7.801-3.5,7.801-7.801V83.885  C115.092,79.584,111.592,76.084,107.292,76.084z M82.266,31.529l17.193,19.216H82.266V31.529z M101.315,107.938  c0,4.463-3.629,8.092-8.092,8.092H41.665c-4.463,0-8.094-3.629-8.094-8.092V37.194c0-4.462,3.631-8.092,8.094-8.092h37.601v24.643  h22.049v22.339H68.427c-4.302,0-7.802,3.5-7.802,7.801v14.707c0,4.301,3.5,7.801,7.802,7.801h32.888V107.938z M112.092,98.592  c0,2.646-2.154,4.801-4.801,4.801H68.427c-2.647,0-4.802-2.154-4.802-4.801V83.885c0-2.646,2.154-4.801,4.802-4.801h38.865  c2.646,0,4.801,2.154,4.801,4.801V98.592z"></path><polygon points="82.362,85.105 80.358,85.105 76.842,90.381 73.477,85.105 71.321,85.105 75.764,91.666 71.057,98.605   73.079,98.605 76.823,93.027 80.452,98.605 82.645,98.605 77.901,91.666 "></polygon><polygon points="85.897,85.105 84.102,85.105 84.102,98.605 93.043,98.605 93.043,97.092 85.897,97.092 "></polygon><path d="M100.379,91.006c-2.174-0.492-4.33-0.738-4.33-2.402c0-1.758,1.514-2.307,3.025-2.307c1.854,0,3.139,0.832,3.346,2.762  h1.703c-0.113-2.969-2.213-4.273-4.973-4.273c-2.457,0-4.896,1.209-4.896,3.951c0,2.477,2.174,3.1,4.328,3.572  c2.156,0.473,4.311,0.795,4.311,2.648c0,1.947-1.795,2.457-3.422,2.457c-2.041,0-3.932-0.982-3.932-3.252h-1.701  c0,3.289,2.553,4.764,5.576,4.764c2.459,0,5.275-1.152,5.275-4.025C104.69,92.252,102.536,91.496,100.379,91.006z"></path></svg>