<svg width="22" height="22" viewBox="0 0 22 22" fill="none" xmlns="http://www.w3.org/2000/svg">
<path d="M13.0497 19.25H8.95038C8.8339 19.2502 8.73609 19.3378 8.72305 19.4535C8.71306 19.5381 8.70816 19.6232 8.70838 19.7083C8.70838 20.974 9.73439 22 11 22C12.2657 22 13.2917 20.974 13.2917 19.7083C13.2919 19.6232 13.287 19.5381 13.277 19.4535C13.2648 19.3373 13.1665 19.2494 13.0497 19.25Z" fill="#F2F5F8"/>
<path d="M19.6588 17.6697C18.6097 15.5844 18.0617 13.283 18.0583 10.9487V10.2447C18.1099 7.47189 16.7822 4.85424 14.5145 3.25783C13.864 2.83852 13.1368 2.55249 12.375 2.41633V1.375C12.375 0.615608 11.7594 0 11 0C10.2406 0 9.625 0.615608 9.625 1.375V2.42825C8.67419 2.60833 7.779 3.0093 7.01159 3.59883C5.03001 5.23132 3.90001 7.67758 3.94167 10.2447V10.9487C3.93833 13.283 3.3903 15.5844 2.34117 17.6697C2.27005 17.8116 2.27744 17.9802 2.3607 18.1154C2.44397 18.2506 2.59125 18.333 2.75 18.3333H19.25C19.409 18.3332 19.5566 18.2506 19.6399 18.1151C19.7232 17.9797 19.7304 17.8108 19.6588 17.6687V17.6697Z" fill="#F2F5F8"/>
</svg>
