<?xml version="1.0" encoding="UTF-8"?>
<svg width="23px" height="18px" viewBox="0 0 23 18" version="1.1" xmlns="http://www.w3.org/2000/svg" xmlns:xlink="http://www.w3.org/1999/xlink">
    <!-- Generator: Sketch 53.2 (72643) - https://sketchapp.com -->
    <!-- <title>email-check-outline</title> -->
    <desc>Created with Sketch.</desc>
    <g id="+-Document-request" stroke="none" stroke-width="1" fill="none" fill-rule="evenodd">
        <g id="Document-request---expand-doc-already-sent-2nd-attempt-Copy-2" transform="translate(-908.000000, -346.000000)" fill="#7F95AA">
            <g id="email-check-outline" transform="translate(908.000000, 346.000000)">
                <path d="M22.5,13 L17.5,18 L14,14.5 L15.5,13 L17.5,15 L21,11.5 L22.5,13 Z M0,2 L0,14 C0,14.5304 0.21071,15.0391 0.58579,15.4142 C0.96086,15.7893 1.46957,16 2,16 L12,16 L12,14 L2,14 L2,4.37 L10,9.36 L18,4.37 L18,9 L20,9 L20,2 C20,1.46957 19.7893,0.96086 19.4142,0.58579 C19.0391,0.21071 18.5304,0 18,0 L2,0 C0.89,0 0,0.89 0,2 Z M2,2 L18,2 L10,7 L2,2 Z" id="Shape"></path>
            </g>
        </g>
    </g>
</svg>