<svg width="96" height="82" viewBox="0 0 96 82" fill="none" xmlns="http://www.w3.org/2000/svg">
<path d="M93.2866 50L73.5849 32.9095H22.4151L2.71342 50L0 47.0952L20.8577 29H75.1423L96 47.0952L93.2866 50Z" fill="#5D768F"/>
<path d="M90 82H6C2.691 82 0 79.309 0 76V47H32V49C32 53.963 36.037 58 41 58H55C59.963 58 64 53.963 64 49V47H96V76C96 79.309 93.309 82 90 82ZM4 51V76C4 77.103 4.897 78 6 78H90C91.103 78 92 77.103 92 76V51H67.847C66.882 57.223 61.488 62 55 62H41C34.512 62 29.118 57.223 28.153 51H4Z" fill="#5D768F"/>
<path d="M35.6874 12.928L28.6873 1.9278L25.3125 4.0754L32.3126 15.0756L35.6874 12.928Z" fill="#5D768F"/>
<path d="M71.6879 4.07188L68.3131 1.92468L61.3143 12.9248L64.6891 15.072L71.6879 4.07188Z" fill="#5D768F"/>
<path d="M50 0H46V13H50V0Z" fill="#5D768F"/>
</svg>
