<?xml version="1.0" encoding="UTF-8"?>
<svg width="16px" height="18px" viewBox="0 0 16 18" version="1.1" xmlns="http://www.w3.org/2000/svg" xmlns:xlink="http://www.w3.org/1999/xlink">
    <!-- Generator: Sketch 53.2 (72643) - https://sketchapp.com -->
    <title>file-search-outline</title>
    <desc>Created with Sketch.</desc>
    <g id="+-Components" stroke="none" stroke-width="1" fill="none" fill-rule="evenodd">
        <g id="Icon-/-file-search-outline" transform="translate(-4.000000, -3.000000)">
            <g id="file-search-outline">
                <rect id="Container" x="0" y="0" width="24" height="24"></rect>
                <path d="M12.2516761,3 L5.65033522,3 C4.73888025,3 4,3.75351795 4,4.68302945 L4,18.1472651 C4,19.0767766 4.73888025,19.8302945 5.65033522,19.8302945 L11.4265085,19.8302945 C11.0881898,19.6199158 10.7663744,19.3590463 10.4858174,19.0729313 C10.2135121,18.7952314 9.98246519,18.483871 9.77617329,18.1472651 L5.65033522,18.1472651 L5.65033522,4.68302945 L11.4265085,4.68302945 L11.4265085,8.89060309 L15.5523466,8.89060309 L15.5523466,9.88359046 C16.1382156,10.0182328 16.6993296,10.2454418 17.2026818,10.5736325 L17.2026818,8.04908836 L12.2516761,3 L12.2516761,3 Z M17.4584838,17.2215989 C18.5559567,15.4460028 18.0278494,13.0981767 16.3032491,11.9873773 C14.5621454,10.8681627 12.2516761,11.4151473 11.1707065,13.1654979 C10.0649819,14.941094 10.6013409,17.2805049 12.3259412,18.3997195 C13.5306859,19.1823282 15.0654977,19.1823282 16.2784941,18.4165498 L18.853017,21 L20,19.8302945 L17.4584838,17.2215989 L17.4584838,17.2215989 Z M14.3145952,17.3057504 C13.1752764,17.3057504 12.2516761,16.3638529 12.2516761,15.2019635 C12.2516761,14.0400742 13.1752764,13.0981767 14.3145952,13.0981767 C15.4539139,13.0981767 16.3775142,14.0400742 16.3775142,15.2019635 C16.3775142,16.3638529 15.4539139,17.3057504 14.3145952,17.3057504 Z" id="Shape" fill="#7F95AA"></path>
            </g>
        </g>
    </g>
</svg>