<?xml version="1.0" encoding="UTF-8"?>
<svg width="16px" height="16px" viewBox="0 0 16 16" version="1.1" xmlns="http://www.w3.org/2000/svg" xmlns:xlink="http://www.w3.org/1999/xlink">
    <!-- Generator: Sketch 57.1 (83088) - https://sketch.com -->
    <g id="As-a-requester" stroke="none" stroke-width="1" fill="none" fill-rule="evenodd">
        <g id="Request_Sender_New_Y-Copy-(1)" transform="translate(-251.000000, -879.000000)" fill="#5D768F">
            <g id="information-outline" transform="translate(251.000000, 879.000000)">
                <path d="M7.2,5.6 L8.8,5.6 L8.8,4 L7.2,4 L7.2,5.6 Z M8,14.4 C4.472,14.4 1.6,11.528 1.6,8 C1.6,4.472 4.472,1.6 8,1.6 C11.528,1.6 14.4,4.472 14.4,8 C14.4,11.528 11.528,14.4 8,14.4 L8,14.4 Z M8,-4.4408921e-16 C3.581722,-4.4408921e-16 -4.4408921e-16,3.581722 -4.4408921e-16,8 C-4.4408921e-16,10.1217319 0.842854723,12.1565632 2.34314575,13.6568542 C3.84343678,15.1571453 5.87826808,16 8,16 C10.1217319,16 12.1565632,15.1571453 13.6568542,13.6568542 C15.1571453,12.1565632 16,10.1217319 16,8 C16,5.87826808 15.1571453,3.84343678 13.6568542,2.34314575 C12.1565632,0.842854723 10.1217319,-4.4408921e-16 8,-4.4408921e-16 L8,-4.4408921e-16 Z M7.2,12 L8.8,12 L8.8,7.2 L7.2,7.2 L7.2,12 Z" id="Shape"></path>
            </g>
        </g>
    </g>
</svg>