<?xml version="1.0" encoding="UTF-8"?>
<svg width="24px" height="24px" viewBox="0 0 24 24" version="1.1" xmlns="http://www.w3.org/2000/svg" xmlns:xlink="http://www.w3.org/1999/xlink">
    <!-- Generator: Sketch 53.2 (72643) - https://sketchapp.com -->
    <title>Icon / error_24px</title>
    <desc>Created with Sketch.</desc>
    <g id="Icon-/-error_24px" stroke="none" stroke-width="1" fill="none" fill-rule="evenodd">
        <g id="error_24px">
            <rect id="Container" x="0" y="0" width="24" height="24"></rect>
            <path d="M2,12 C2,6.48 6.47,2 11.99,2 C17.52,2 22,6.48 22,12 C22,17.52 17.52,22 11.99,22 C6.47,22 2,17.52 2,12 Z M13,8 C13,7.45 12.55,7 12,7 C11.45,7 11,7.45 11,8 L11,12 C11,12.55 11.45,13 12,13 C12.55,13 13,12.55 13,12 L13,8 Z M12,20 C7.58,20 4,16.42 4,12 C4,7.58 7.58,4 12,4 C16.42,4 20,7.58 20,12 C20,16.42 16.42,20 12,20 Z M11,15 L11,17 L13,17 L13,15 L11,15 Z" id="Shape" fill="#D45C64"></path>
        </g>
    </g>
</svg>