<?xml version="1.0" encoding="UTF-8"?>
<svg width="24px" height="24px" viewBox="0 0 24 24" version="1.1" xmlns="http://www.w3.org/2000/svg" xmlns:xlink="http://www.w3.org/1999/xlink">
    <!-- Generator: Sketch 53.2 (72643) - https://sketchapp.com -->
    <title>Icon / sync</title>
    <desc>Created with Sketch.</desc>
    <g id="Icon-/-sync" stroke="none" stroke-width="1" fill="none" fill-rule="evenodd">
        <g id="sync">
            <rect id="Container" x="0" y="0" width="24" height="24"></rect>
            <path d="M12,18 C8.6862915,18 6,15.3137085 6,12 C6,11 6.25,10.03 6.7,9.2 L5.24,7.74 C4.46,8.97 4,10.43 4,12 C4,16.418278 7.581722,20 12,20 L12,23 L16,19 L12,15 L12,18 Z M12,4 L12,1 L8,5 L12,9 L12,6 C15.3137085,6 18,8.6862915 18,12 C18,13 17.75,13.97 17.3,14.8 L18.76,16.26 C19.54,15.03 20,13.57 20,12 C20,7.581722 16.418278,4 12,4 Z" id="Shape" fill="#7F95AA"></path>
        </g>
    </g>
</svg>