<svg xmlns="http://www.w3.org/2000/svg" viewBox="0 0 1326.11 648.48"><defs><style>.cls-1{fill:#5800b4;}.cls-2{fill:#ffcdd2;}.cls-3{fill:#ffff76;}.cls-4{fill:#00a0aa;}</style></defs><title>Komposition</title><g id="Calque_2" data-name="Calque 2"><g id="Calque_1-2" data-name="Calque 1"><g id="Layer_2" data-name="Layer 2"><g id="Layer_1-2" data-name="Layer 1-2"><polygon class="cls-1" points="1255.59 108.08 1255.57 108.05 1326.11 0 1262.56 0 1201.86 93.43 1201.86 0 1144.98 0 1144.98 216.16 1201.86 216.16 1201.86 122.73 1262.56 216.16 1326.11 216.16 1255.57 108.12 1255.59 108.08"/><polygon class="cls-2" points="661.3 216.16 590.75 108.12 590.77 108.08 590.75 108.05 661.3 0 597.74 0 547.91 76.7 547.91 139.46 597.74 216.16 661.3 216.16"/><polygon class="cls-3" points="470.75 108.08 470.78 108.05 442.05 64.05 400.44 0 336.88 0 407.43 108.05 407.41 108.08 407.43 108.12 336.88 216.16 400.44 216.16 470.78 108.12 470.75 108.08"/><polygon class="cls-1" points="791.99 108.05 791.97 108.08 791.99 108.12 721.44 216.16 785 216.16 855.34 108.12 855.32 108.08 855.34 108.05 791.99 108.05"/><polygon class="cls-1" points="220.07 108.05 220.05 108.08 220.07 108.12 149.52 216.16 213.08 216.16 283.42 108.12 283.39 108.08 283.42 108.05 220.07 108.05"/><polygon class="cls-2" points="70.55 108.05 70.53 108.08 70.55 108.12 0 216.16 63.56 216.16 133.89 108.12 133.87 108.08 133.89 108.05 70.55 108.05"/><polygon class="cls-3" points="861.34 108.12 861.32 108.08 861.34 108.05 790.79 0 854.35 0 924.68 108.05 924.66 108.08 924.68 108.12 861.34 108.12"/><polygon class="cls-4" points="1050.52 108.12 1050.49 108.08 1050.52 108.05 979.97 0 1043.53 0 1113.86 108.05 1113.84 108.08 1113.86 108.12 1050.52 108.12"/><polygon class="cls-3" points="1262.77 216.16 1262.75 216.13 1262.77 216.1 1192.22 108.05 1255.78 108.05 1326.11 216.1 1326.09 216.13 1326.11 216.16 1262.77 216.16"/><polyline class="cls-1" points="547.91 108.12 547.91 76.74 597.74 0.03 661.3 0.03 590.75 108.08 590.77 108.12 590.75 108.15"/></g></g><g id="Layer_2-2" data-name="Layer 2"><g id="Layer_1-2-2" data-name="Layer 1-2"><polygon class="cls-4" points="918.92 324.24 918.95 324.21 848.4 216.16 911.95 216.16 972.65 309.59 972.65 216.16 1029.53 216.16 1029.53 432.32 972.65 432.32 972.65 338.89 911.95 432.32 848.4 432.32 918.95 324.28 918.92 324.24"/><polygon class="cls-3" points="1153.79 216.16 1083.24 324.21 1083.26 324.24 1083.24 324.28 1153.79 432.32 1090.23 432.32 1040.4 355.62 1040.4 292.86 1090.23 216.16 1153.79 216.16"/><polygon class="cls-1" points="655.29 216.16 584.75 324.21 584.77 324.24 584.75 324.28 655.29 432.32 591.74 432.32 541.91 355.62 541.91 292.86 591.74 216.16 655.29 216.16"/><polygon class="cls-4" points="1326.08 216.16 1255.54 324.21 1255.56 324.24 1255.54 324.28 1326.08 432.32 1262.53 432.32 1212.7 355.62 1212.7 292.86 1262.53 216.16 1326.08 216.16"/><polygon class="cls-2" points="655.32 324.24 655.29 324.21 684.02 280.21 725.63 216.16 789.19 216.16 718.64 324.21 718.66 324.24 718.64 324.28 789.19 432.32 725.63 432.32 655.29 324.28 655.32 324.24"/><polygon class="cls-4" points="335.93 324.24 335.95 324.28 307.22 368.28 265.61 432.32 202.06 432.32 272.61 324.28 272.58 324.24 272.61 324.21 202.06 216.16 265.61 216.16 335.95 324.21 335.93 324.24"/><polygon class="cls-2" points="59.02 324.24 59 324.21 87.73 280.21 129.34 216.16 192.89 216.16 122.35 324.21 122.37 324.24 122.35 324.28 192.89 432.32 129.34 432.32 59 324.28 59.02 324.24"/><polygon class="cls-1" points="400.74 324.21 400.76 324.24 400.74 324.28 471.28 432.32 407.73 432.32 337.39 324.28 337.41 324.24 337.39 324.21 400.74 324.21"/><polygon class="cls-2" points="911.74 216.16 911.76 216.19 911.74 216.23 982.29 324.28 918.73 324.28 848.4 216.23 848.42 216.19 848.4 216.16 911.74 216.16"/><polygon class="cls-3" points="487.65 324.28 487.67 324.24 487.65 324.21 558.2 216.16 494.64 216.16 424.31 324.21 424.33 324.24 424.31 324.28 487.65 324.28"/></g></g><g id="Layer_2-3" data-name="Layer 2"><g id="Layer_1-2-3" data-name="Layer 1-2"><polygon class="cls-4" points="467.59 540.4 467.57 540.44 538.12 648.48 474.56 648.48 413.86 555.05 413.86 648.48 356.98 648.48 356.98 432.32 413.86 432.32 413.86 525.75 474.56 432.32 538.12 432.32 467.57 540.37 467.59 540.4"/><polygon class="cls-3" points="232.72 648.48 303.27 540.44 303.25 540.4 303.27 540.37 232.72 432.32 296.28 432.32 346.11 509.02 346.11 571.78 296.28 648.48 232.72 648.48"/><polygon class="cls-1" points="731.22 648.48 801.76 540.44 801.74 540.4 801.76 540.37 731.22 432.32 794.77 432.32 844.6 509.02 844.6 571.78 794.77 648.48 731.22 648.48"/><polygon class="cls-4" points="86 648.48 156.55 540.44 156.53 540.4 156.55 540.37 86 432.32 149.56 432.32 199.39 509.02 199.39 571.78 149.56 648.48 86 648.48"/><polygon class="cls-2" points="561.37 540.4 561.35 540.37 590.08 496.37 631.69 432.32 695.24 432.32 624.7 540.37 624.72 540.4 624.7 540.44 695.24 648.48 631.69 648.48 561.35 540.44 561.37 540.4"/><polygon class="cls-4" points="1050.58 540.4 1050.56 540.37 1079.29 496.37 1120.9 432.32 1184.45 432.32 1113.9 540.37 1113.93 540.4 1113.9 540.44 1184.45 648.48 1120.9 648.48 1050.56 540.44 1050.58 540.4"/><polygon class="cls-2" points="1165.21 540.4 1165.19 540.37 1193.92 496.37 1235.53 432.32 1299.09 432.32 1228.54 540.37 1228.56 540.4 1228.54 540.44 1299.09 648.48 1235.53 648.48 1165.19 540.44 1165.21 540.4"/><polygon class="cls-1" points="985.78 540.44 985.75 540.4 985.78 540.37 915.23 432.32 978.78 432.32 1049.12 540.37 1049.1 540.4 1049.12 540.44 985.78 540.44"/><polygon class="cls-2" points="474.77 648.48 474.75 648.45 474.77 648.42 404.22 540.37 467.78 540.37 538.12 648.42 538.09 648.45 538.12 648.48 474.77 648.48"/><polygon class="cls-3" points="898.86 540.37 898.84 540.4 898.86 540.44 828.31 648.48 891.87 648.48 962.2 540.44 962.18 540.4 962.2 540.37 898.86 540.37"/></g></g></g></g></svg>